<svg xmlns="http://www.w3.org/2000/svg" width="64" height="64" viewBox="0 0 800 856">
  <path fill="#632CA6" d="m668.5 419.3l19.5 249.2l-346.2 62.7l-29.8-249.4l49.4-6.9c8 3.4 13.8 4.6 23 6.9c14.9 3.4 32.2 8 57.4-5.7c5.7-3.4 18.4-13.8 23-20.7zM135.2 716.1c-5.7-9.2-16.1-19.5-32.2-32.2c-23-18.4-14.9-50.6-1.1-70.1c17.4-33.3 108-77 103.4-131c-2.3-19.5-4.6-44.8-23-63.2c-1.1 6.9 0 13.8 0 13.8s-8-9.2-11.5-23c-3.4-4.6-6.9-6.9-10.3-13.8c-2.3 8-2.3 16.1-2.3 16.1s-5.7-14.9-6.9-26.4c-3.4 5.7-4.6 16.1-4.6 16.1s-8-23-5.7-35.6c-3.4-10.3-14.9-32.2-11.5-80.5c19.5 13.8 63.2 10.3 80.5-14.9c5.7-8 9.2-31-2.3-75.9c-8-28.7-27.6-71.3-35.6-87.4l-1.1 1.1c4.6 12.6 12.6 40.2 16.1 54c9.2 40.2 12.6 54 8 72.4c-3.4 16.1-12.6 26.4-36.8 37.9c-23 11.5-55.2-17.4-56.3-18.4c-23-18.4-40.2-48.3-42.5-62.1c-2.3-16.1 9.2-25.3 14.9-37.9c-8 2.3-17.4 6.9-17.4 6.9s10.3-11.5 24.1-20.7c4.6-3.4 9.2-6.9 14.9-10.3h-3.4s13.8-8 28.7-12.6h-2.3l55.2-24.1c17.4-6.9 33.3-4.6 42.5 8c12.6 17.4 25.3 26.4 51.7 33.3c16.1-6.9 21.8-11.5 42.5-17.4c18.4-20.7 33.3-23 33.3-23s-10.3 9.2-11.5 19.5c10.3-8 21.8-14.9 21.8-14.9s-4.6 5.7-8 13.8l1.1 1.1c12.6-6.9 26.4-12.6 26.4-12.6s-4.6 4.6-9.2 11.5c9.2 0 27.6 0 34.5 1.1c42.5 1.1 51.7-44.8 67.8-51.7c20.7-6.9 29.9-11.5 64.4 23c29.9 29.9 52.9 81.6 41.4 93.1c-9.2 9.2-28.7-3.4-50.6-29.9c-11.5-13.8-19.5-31-24.1-51.7c-2.3-17.4-14.9-27.6-14.9-27.6s8 17.4 8 32.2c0 8 1.1 37.9 13.8 55.2c-1.1 2.3-2.3 12.6-3.4 13.8c-14.9-18.4-48.3-31-52.9-35.6c18.4 14.9 59.8 48.3 75.9 80.5c14.9 31 5.7 58.6 13.8 65.5c2.3 2.3 32.2 39.1 37.9 58.6c10.3 33.3 1.1 67.8-12.6 88.5l-36.8 5.7c-4.6-2.3-9.2-4.6-13.8-4.6c2.3-4.6 8-16.1 8-18.4l-2.3-3.4c-11.5 16.1-31 32.2-47.1 41.4c-20.7 11.5-44.8 10.3-60.9 4.6c-44.8-13.8-87.4-43.7-96.6-51.7c0 0 0 5.7 1.1 8c19.5 18.4 40.2 37.9 62.1 51.7l-52.9 5.7l25.3 195.4c-11.5 1.1-12.6 2.3-25.3 4.6c-10.3-37.9-31-62.1-54-77c-19.5-12.6-47.1-16.1-73.6-10.3l-1.1 2.3c18.4-2.3 40.2 1.1 62.1 14.9s39.1 49.4 46 70.1c8 27.6 13.8 56.3-8 87.4c-16.1 21.8-62.1 34.5-98.8 8c10.3 16.1 23 28.7 41.4 31c26.4 3.4 51.7-1.1 70.1-18.4c14.9-14.9 23-47.1 20.7-81.6l24.1-3.4l8 60.9l375.9-49.4l-34.5-312.6l-19.5 3.4L626 0L0 75.9l80.5 650.4z"/>
  <path fill="#632CA6" d="M456.7 373.2c17.4 12.6 32.2 20.7 47.1 19.5c9.2-1.1 18.4-16.1 24.1-29.9c4.6-9.2 4.6-19.5-2.3-23c-3.4-1.1-17.4-1.1-27.6 0c-19.5 2.3-39.1 9.2-43.7 12.6c-6.9 4.6-3.4 16.1 2.3 20.7m4.6-134.5v1.1l1.1 2.3c4.6 9.2 9.2 18.4 18.4 23c2.3 0 4.6-1.1 6.9-1.1c8 0 12.6 1.1 16.1 2.3v-6.9c-1.1-11.5 2.3-32.2-20.7-43.7c-9.2-4.6-20.7-2.3-25.3 2.3h2.3c5.7 2.3 2.3 4.6 1.1 6.9c-1.1 4.6-2.3 5.7 0 13.8"/>
  <path fill="#632CA6" d="M357.5 240.8c5.7-4.6-26.4-11.5-51.7 4.6c-18.4 12.6-18.4 39.1-1.1 54c1.1 1.1 2.3 2.3 4.6 3.4c4.6-2.3 11.5-4.6 17.4-6.9c11.5-3.4 20.7-5.7 28.7-6.9c3.4-4.6 8-11.5 6.9-24.1c-1.1-17.4-14.9-13.8-4.6-24.1m187.3 279.3l-55.2 91.9l-64.4-19.5l-56.3 86.2l2.3 27.6l308.1-56.3l-18.4-192l-50.6 105.7z"/>
</svg>
